<svg width="103" height="33" viewBox="0 0 103 33" fill="none" xmlns="http://www.w3.org/2000/svg">
<path d="M10.2402 14.4535C10.2402 13.9822 10.6222 13.6002 11.0935 13.6002H24.7469C25.2181 13.6002 25.6002 13.9822 25.6002 14.4535V16.5869C25.6002 17.0581 25.2181 17.4402 24.7469 17.4402H17.8297C17.4496 17.4402 17.2592 17.8998 17.528 18.1686L24.9968 25.6373C25.33 25.9706 25.33 26.5109 24.9968 26.8441L23.4841 28.3568C23.1509 28.69 22.6106 28.69 22.2773 28.3568L14.8086 20.888C14.5398 20.6192 14.0802 20.8096 14.0802 21.1897V28.1069C14.0802 28.5781 13.6981 28.9602 13.2269 28.9602H11.0935C10.6222 28.9602 10.2402 28.5781 10.2402 28.1069V14.4535Z" fill="black"/>
<path d="M12.1493 3.36023C11.8018 3.36023 11.52 3.64199 11.52 3.98956V8.49089C11.52 8.83846 11.8018 9.12022 12.1493 9.12022H14.7307C15.0782 9.12022 15.36 8.83846 15.36 8.49089V3.98956C15.36 3.64199 15.0782 3.36023 14.7307 3.36023H12.1493Z" fill="black"/>
<path d="M5.13067 14.8802C5.47824 14.8802 5.76 15.162 5.76 15.5095V18.091C5.76 18.4385 5.47824 18.7202 5.13067 18.7202H0.629333C0.281762 18.7202 0 18.4385 0 18.091V15.5095C0 15.162 0.281762 14.8802 0.629333 14.8802H5.13067Z" fill="black"/>
<path d="M8.19803 8.83899C8.51493 9.15588 8.40797 9.69812 8.03342 9.94422C7.4568 10.3231 6.96268 10.8173 6.58381 11.3939C6.33771 11.7684 5.79546 11.8754 5.47857 11.5585L1.72485 7.80473C1.47908 7.55896 1.47908 7.16048 1.72485 6.91471L3.55429 5.08527C3.80006 4.8395 4.19853 4.8395 4.44431 5.08527L8.19803 8.83899Z" fill="black"/>
<path d="M45.4402 25.544C40.5506 25.544 36.2754 22.0112 36.2754 16.0976C36.2754 10.184 40.7042 6.62561 45.4146 6.62561C50.0226 6.62561 52.7618 9.33921 53.581 12.5136L50.6882 13.4864C50.1506 11.2848 48.461 9.51841 45.4146 9.51841C42.4194 9.51841 39.4242 11.6944 39.4242 16.0976C39.4242 20.3472 42.3426 22.6 45.4402 22.6C48.4866 22.6 50.2274 20.6544 50.8418 18.6064L53.6578 19.528C52.8386 22.6 50.0738 25.544 45.4402 25.544ZM59.216 30.2032H56.0416L59.0368 23.6752L53.712 12.6928H57.0656L60.6496 20.5776L64.0032 12.6928H67.152L59.216 30.2032ZM75.8552 12.616V15.6368C75.5224 15.5856 75.1896 15.56 74.8824 15.56C72.5784 15.56 71.5288 16.8912 71.5288 19.2208V25.16H68.5592V12.6928H71.452V14.6896C72.0408 13.3328 73.4232 12.5392 75.0616 12.5392C75.42 12.5392 75.7272 12.5904 75.8552 12.616ZM85.7064 23.7776C85.092 24.904 83.6328 25.5184 82.1736 25.5184C79.204 25.5184 77.4632 23.3168 77.4632 20.552V12.6928H80.4328V20.0144C80.4328 21.5504 81.1496 22.856 82.9416 22.856C84.6568 22.856 85.5528 21.704 85.5528 20.0656V12.6928H88.5224V22.8816C88.5224 23.9056 88.5992 24.6992 88.6504 25.16H85.8088C85.7576 24.8784 85.7064 24.2896 85.7064 23.7776ZM90.4974 21.7808L93.083 21.064C93.1854 22.1904 94.0302 23.1888 95.6174 23.1888C96.8462 23.1888 97.4862 22.5232 97.4862 21.7552C97.4862 21.0896 97.0254 20.5776 96.027 20.3728L94.1838 19.9632C91.9822 19.4768 90.8302 18.0432 90.8302 16.328C90.8302 14.152 92.827 12.3088 95.4126 12.3088C98.8942 12.3088 100.021 14.5616 100.225 15.7904L97.7166 16.5072C97.6142 15.7904 97.0766 14.6384 95.4126 14.6384C94.363 14.6384 93.6206 15.304 93.6206 16.072C93.6206 16.7376 94.107 17.224 94.875 17.3776L96.7694 17.7616C99.1246 18.2736 100.353 19.7072 100.353 21.5504C100.353 23.4448 98.8174 25.544 95.643 25.544C92.0334 25.544 90.651 23.1888 90.4974 21.7808Z" fill="black"/>
</svg>
