<svg width="115" height="33" viewBox="0 0 115 33" fill="none" xmlns="http://www.w3.org/2000/svg">
<path d="M10.8607 9.06483C11.0438 8.98901 11.2397 9.1273 11.2397 9.32543V17.8669C11.2397 18.3381 11.6218 18.7202 12.0931 18.7202H15.5064C15.9777 18.7202 16.3597 18.3381 16.3597 17.8669V9.32543C16.3597 9.1273 16.5557 8.98901 16.7387 9.06483C17.4071 9.34169 18.0317 9.71104 18.5947 10.1609C18.9628 10.4552 19.5005 10.4595 19.8337 10.1262L22.2473 7.71266C22.5806 7.37941 22.5823 6.83671 22.2276 6.5264C21.1798 5.60971 19.9879 4.86881 18.6981 4.33457C17.1451 3.69131 15.4807 3.36023 13.7997 3.36023C12.1188 3.36023 10.4544 3.69131 8.90141 4.33457C7.61163 4.86882 6.41972 5.60971 5.37186 6.52641C5.01715 6.83671 5.01895 7.37941 5.35219 7.71266L7.76579 10.1262C8.09903 10.4595 8.63669 10.4552 9.00483 10.1609C9.56776 9.71105 10.1924 9.34169 10.8607 9.06483Z" fill="black"/>
<path d="M22.3331 16.1602C21.8618 16.1602 21.4846 16.5435 21.4324 17.0118C21.2401 18.7354 20.4684 20.3527 19.2303 21.5908C17.79 23.0311 15.8366 23.8402 13.7997 23.8402C11.7629 23.8402 9.80944 23.0311 8.36916 21.5908C7.13105 20.3527 6.35934 18.7354 6.16708 17.0118C6.11483 16.5435 5.73769 16.1602 5.2664 16.1602H1.85307C1.38179 16.1602 0.996779 16.5428 1.02816 17.013C1.23392 20.0963 2.55012 23.0125 4.74878 25.2112C7.14925 27.6116 10.405 28.9602 13.7997 28.9602C17.1945 28.9602 20.4502 27.6116 22.8507 25.2112C25.0494 23.0125 26.3656 20.0963 26.5713 17.013C26.6027 16.5428 26.2177 16.1602 25.7464 16.1602H22.3331Z" fill="black"/>
<path d="M36.7124 19.6816V18.504L39.7076 17.8896V19.5792C39.7076 21.704 40.9108 22.6512 42.498 22.6512C44.1364 22.6512 45.1604 21.5504 45.1604 19.7072V7.00961H48.2324V19.6304C48.2324 22.856 45.9796 25.544 42.5236 25.544C38.9652 25.544 36.7124 23.2144 36.7124 19.6816ZM50.5344 21.7808C50.5344 19.5536 52.1728 18.3248 54.2976 18.0176L57.4976 17.5312C58.2144 17.4288 58.4192 17.0704 58.4192 16.6352C58.4192 15.5856 57.7024 14.7408 56.064 14.7408C54.5024 14.7408 53.632 15.7392 53.504 16.9936L50.7904 16.3792C51.0208 14.2288 52.9664 12.3088 56.0384 12.3088C59.8784 12.3088 61.3376 14.4848 61.3376 16.968V23.1632C61.3376 24.2896 61.4656 25.032 61.4912 25.16H58.7264C58.7008 25.0832 58.5984 24.5712 58.5984 23.5728C58.0096 24.52 56.7808 25.544 54.7584 25.544C52.1472 25.544 50.5344 23.752 50.5344 21.7808ZM55.3216 23.2144C56.9856 23.2144 58.4192 22.4208 58.4192 19.9888V19.4256L55.168 19.912C54.2464 20.0656 53.504 20.5776 53.504 21.6016C53.504 22.4464 54.144 23.2144 55.3216 23.2144ZM67.1034 25.16H64.1594V12.6928H67.001V14.28C67.7178 13 69.2794 12.3344 70.6874 12.3344C72.3258 12.3344 73.7594 13.0768 74.425 14.536C75.3978 12.8976 76.857 12.3344 78.4698 12.3344C80.7226 12.3344 82.873 13.768 82.873 17.0704V25.16H80.0058V17.5568C80.0058 16.0976 79.2634 14.9968 77.5994 14.9968C76.0378 14.9968 75.0138 16.2256 75.0138 17.7616V25.16H72.0954V17.5568C72.0954 16.1232 71.3786 14.9968 69.689 14.9968C68.1018 14.9968 67.1034 16.1744 67.1034 17.7616V25.16ZM88.6342 25.16H85.7414V6.62561H88.6598V14.2288C89.223 13.256 90.6566 12.36 92.5766 12.36C96.3142 12.36 98.3366 15.2016 98.3366 18.8624C98.3366 22.6256 96.1094 25.4672 92.4742 25.4672C90.7078 25.4672 89.351 24.6992 88.6342 23.496V25.16ZM95.3414 18.888C95.3414 16.4048 93.959 14.9968 91.9878 14.9968C90.0934 14.9968 88.6342 16.4048 88.6342 18.888C88.6342 21.3456 90.0934 22.8304 91.9878 22.8304C93.9334 22.8304 95.3414 21.3456 95.3414 18.888ZM105.902 22.8816C107.745 22.8816 109.383 21.5248 109.383 18.9136C109.383 16.328 107.745 14.9968 105.902 14.9968C104.084 14.9968 102.42 16.328 102.42 18.9136C102.42 21.4992 104.084 22.8816 105.902 22.8816ZM105.902 12.3088C109.639 12.3088 112.379 15.0992 112.379 18.9136C112.379 22.7536 109.639 25.544 105.902 25.544C102.19 25.544 99.4506 22.7536 99.4506 18.9136C99.4506 15.0992 102.19 12.3088 105.902 12.3088Z" fill="black"/>
</svg>
