<svg width="96" height="33" viewBox="0 0 96 33" fill="none" xmlns="http://www.w3.org/2000/svg">
<path fill-rule="evenodd" clip-rule="evenodd" d="M11.8934 17.7665L20.8155 26.6886L18.5439 28.9602L11.8934 22.3097L9.03626 25.1669L6.76465 22.8953L11.8934 17.7665Z" fill="black"/>
<path fill-rule="evenodd" clip-rule="evenodd" d="M15.3965 18.0569L24.3186 9.13477L26.5902 11.4063L19.9397 18.0569L22.7969 20.914L20.5252 23.1857L15.3965 18.0569Z" fill="black"/>
<path fill-rule="evenodd" clip-rule="evenodd" d="M15.6868 14.5539L6.76465 5.63183L9.03626 3.36023L15.6868 10.0107L18.5439 7.15356L20.8155 9.42517L15.6868 14.5539Z" fill="black"/>
<path fill-rule="evenodd" clip-rule="evenodd" d="M12.1839 14.2635L3.26184 23.1856L0.990234 20.914L7.64075 14.2635L4.78357 11.4063L7.05517 9.13477L12.1839 14.2635Z" fill="black"/>
<path d="M49.5022 25.16L43.8446 17.3008L41.4382 19.9376V25.16H38.3662V7.00961H41.4382V15.7136L49.2462 7.00961H53.291L45.9438 15.0224L53.3678 25.16H49.5022ZM53.6492 21.7808C53.6492 19.5536 55.2876 18.3248 57.4124 18.0176L60.6124 17.5312C61.3292 17.4288 61.534 17.0704 61.534 16.6352C61.534 15.5856 60.8172 14.7408 59.1788 14.7408C57.6172 14.7408 56.7468 15.7392 56.6188 16.9936L53.9052 16.3792C54.1356 14.2288 56.0812 12.3088 59.1532 12.3088C62.9932 12.3088 64.4524 14.4848 64.4524 16.968V23.1632C64.4524 24.2896 64.5804 25.032 64.606 25.16H61.8412C61.8156 25.0832 61.7132 24.5712 61.7132 23.5728C61.1244 24.52 59.8956 25.544 57.8732 25.544C55.262 25.544 53.6492 23.752 53.6492 21.7808ZM58.4364 23.2144C60.1004 23.2144 61.534 22.4208 61.534 19.9888V19.4256L58.2828 19.912C57.3612 20.0656 56.6188 20.5776 56.6188 21.6016C56.6188 22.4464 57.2588 23.2144 58.4364 23.2144ZM69.246 18.888C69.246 21.2688 70.5772 22.856 72.5996 22.856C74.5452 22.856 75.902 21.2432 75.902 18.8624C75.902 16.4816 74.5708 14.9968 72.6252 14.9968C70.6796 14.9968 69.246 16.5072 69.246 18.888ZM78.7692 6.62561V22.8816C78.7692 24.008 78.8716 24.9552 78.8972 25.16H76.0556C76.0044 24.8784 75.9276 24.0592 75.9276 23.5472C75.3388 24.5968 74.0332 25.4672 72.2668 25.4672C68.6828 25.4672 66.2764 22.6512 66.2764 18.888C66.2764 15.304 68.7084 12.36 72.2156 12.36C74.3916 12.36 75.4924 13.3584 75.8764 14.152V6.62561H78.7692ZM89.9214 23.7776C89.307 24.904 87.8478 25.5184 86.3886 25.5184C83.419 25.5184 81.6782 23.3168 81.6782 20.552V12.6928H84.6478V20.0144C84.6478 21.5504 85.3646 22.856 87.1566 22.856C88.8718 22.856 89.7678 21.704 89.7678 20.0656V12.6928H92.7374V22.8816C92.7374 23.9056 92.8142 24.6992 92.8654 25.16H90.0238C89.9726 24.8784 89.9214 24.2896 89.9214 23.7776Z" fill="black"/>
</svg>
