<svg width="95" height="33" viewBox="0 0 95 33" fill="none" xmlns="http://www.w3.org/2000/svg">
<path d="M13.7786 11.8935L9.51569 7.62683L0.989746 16.1601L9.5157 24.6934L13.7786 20.4268L9.51568 16.1601L13.7786 11.8935Z" fill="black"/>
<path d="M18.0638 7.62683L13.8008 11.8935L18.0638 16.1601L13.8008 20.4268L18.0638 24.6934L26.5897 16.1601L18.0638 7.62683Z" fill="black"/>
<path d="M44.8426 21.1408L49.937 7.00963H53.1882L46.3274 25.16H43.2042L36.4458 7.00963H39.7738L44.8426 21.1408ZM52.3488 21.7808C52.3488 19.5536 53.9872 18.3248 56.112 18.0176L59.312 17.5312C60.0288 17.4288 60.2336 17.0704 60.2336 16.6352C60.2336 15.5856 59.5168 14.7408 57.8784 14.7408C56.3168 14.7408 55.4464 15.7392 55.3184 16.9936L52.6048 16.3792C52.8352 14.2288 54.7808 12.3088 57.8528 12.3088C61.6928 12.3088 63.152 14.4848 63.152 16.968V23.1632C63.152 24.2896 63.28 25.032 63.3056 25.16H60.5408C60.5152 25.0832 60.4128 24.5712 60.4128 23.5728C59.824 24.52 58.5952 25.544 56.5728 25.544C53.9616 25.544 52.3488 23.752 52.3488 21.7808ZM57.136 23.2144C58.8 23.2144 60.2336 22.4208 60.2336 19.9888V19.4256L56.9824 19.912C56.0608 20.0656 55.3184 20.5776 55.3184 21.6016C55.3184 22.4464 55.9584 23.2144 57.136 23.2144ZM73.2698 12.616V15.6368C72.937 15.5856 72.6042 15.56 72.297 15.56C69.993 15.56 68.9434 16.8912 68.9434 19.2208V25.16H65.9738V12.6928H68.8666V14.6896C69.4554 13.3328 70.8378 12.5392 72.4762 12.5392C72.8346 12.5392 73.1418 12.5904 73.2698 12.616ZM77.9248 25.16H74.9808V12.6928H77.9248V25.16ZM74.52 8.31523C74.52 7.24003 75.3904 6.36963 76.44 6.36963C77.5152 6.36963 78.3856 7.24003 78.3856 8.31523C78.3856 9.39043 77.5152 10.2352 76.44 10.2352C75.3904 10.2352 74.52 9.39043 74.52 8.31523ZM86.4662 22.8816C88.3094 22.8816 89.9478 21.5248 89.9478 18.9136C89.9478 16.328 88.3094 14.9968 86.4662 14.9968C84.6486 14.9968 82.9846 16.328 82.9846 18.9136C82.9846 21.4992 84.6486 22.8816 86.4662 22.8816ZM86.4662 12.3088C90.2038 12.3088 92.943 15.0992 92.943 18.9136C92.943 22.7536 90.2038 25.544 86.4662 25.544C82.7542 25.544 80.015 22.7536 80.015 18.9136C80.015 15.0992 82.7542 12.3088 86.4662 12.3088Z" fill="black"/>
</svg>
