<svg width="100" height="33" viewBox="0 0 100 33" fill="none" xmlns="http://www.w3.org/2000/svg">
<path d="M10.254 4.63953C10.0857 4.63953 9.94922 4.77598 9.94922 4.9443V12.3195H13.7892H17.6292V4.9443C17.6292 4.77598 17.4927 4.63953 17.3244 4.63953H10.254Z" fill="black"/>
<path d="M2.5738 12.3195C2.40549 12.3195 2.26904 12.4559 2.26904 12.6243V19.43C2.26904 19.6735 2.54033 19.8186 2.74286 19.6836L13.789 12.3195L24.8352 19.6836C25.0377 19.8186 25.309 19.6735 25.309 19.43V12.6243C25.309 12.4559 25.1726 12.3195 25.0042 12.3195H13.789H2.5738Z" fill="black"/>
<path d="M10.254 19.9995C10.0857 19.9995 9.94922 20.1359 9.94922 20.3043V27.3747C9.94922 27.543 10.0857 27.6795 10.254 27.6795H17.3244C17.4927 27.6795 17.6292 27.543 17.6292 27.3747V20.3043C17.6292 20.1359 17.4927 19.9995 17.3244 19.9995H10.254Z" fill="black"/>
<path d="M41.4377 15.3552H44.6377C46.5833 15.3552 47.7609 14.28 47.7609 12.5648C47.7609 10.824 46.5833 9.72323 44.6377 9.72323H41.4377V15.3552ZM45.0985 18.0688H41.4377V25.16H38.3657V7.00963H45.0985C48.5801 7.00963 50.8841 9.36483 50.8841 12.5392C50.8841 15.7392 48.5801 18.0688 45.0985 18.0688ZM59.7127 12.616V15.6368C59.3799 15.5856 59.0471 15.56 58.7399 15.56C56.4359 15.56 55.3863 16.8912 55.3863 19.2208V25.16H52.4167V12.6928H55.3095V14.6896C55.8983 13.3328 57.2807 12.5392 58.9191 12.5392C59.2775 12.5392 59.5847 12.5904 59.7127 12.616ZM64.3677 25.16H61.4237V12.6928H64.3677V25.16ZM60.9629 8.31523C60.9629 7.24003 61.8333 6.36963 62.8829 6.36963C63.9581 6.36963 64.8285 7.24003 64.8285 8.31523C64.8285 9.39043 63.9581 10.2352 62.8829 10.2352C61.8333 10.2352 60.9629 9.39043 60.9629 8.31523ZM66.3299 21.7808L68.9155 21.064C69.0179 22.1904 69.8627 23.1888 71.4499 23.1888C72.6787 23.1888 73.3187 22.5232 73.3187 21.7552C73.3187 21.0896 72.8579 20.5776 71.8595 20.3728L70.0163 19.9632C67.8147 19.4768 66.6627 18.0432 66.6627 16.328C66.6627 14.152 68.6595 12.3088 71.2451 12.3088C74.7267 12.3088 75.8531 14.5616 76.0579 15.7904L73.5491 16.5072C73.4467 15.7904 72.9091 14.6384 71.2451 14.6384C70.1955 14.6384 69.4531 15.304 69.4531 16.072C69.4531 16.7376 69.9395 17.224 70.7075 17.3776L72.6019 17.7616C74.9571 18.2736 76.1859 19.7072 76.1859 21.5504C76.1859 23.4448 74.6499 25.544 71.4755 25.544C67.8659 25.544 66.4835 23.1888 66.3299 21.7808ZM81.3067 25.16H78.3627V12.6928H81.2043V14.28C81.9211 13 83.4827 12.3344 84.8907 12.3344C86.5291 12.3344 87.9627 13.0768 88.6283 14.536C89.6011 12.8976 91.0603 12.3344 92.6731 12.3344C94.9259 12.3344 97.0763 13.768 97.0763 17.0704V25.16H94.2091V17.5568C94.2091 16.0976 93.4667 14.9968 91.8027 14.9968C90.2411 14.9968 89.2171 16.2256 89.2171 17.7616V25.16H86.2987V17.5568C86.2987 16.1232 85.5819 14.9968 83.8923 14.9968C82.3051 14.9968 81.3067 16.1744 81.3067 17.7616V25.16Z" fill="black"/>
</svg>
