<svg width="111" height="28" viewBox="0 0 111 28" fill="none" xmlns="http://www.w3.org/2000/svg">
<path d="M1.24658 3.41998C1.24658 2.00613 2.39273 0.859985 3.80658 0.859985H7.66904C9.08289 0.859985 10.229 2.00613 10.229 3.41998V6.52855C10.229 7.9424 11.3752 9.08855 12.7891 9.08855H15.7533C17.1671 9.08855 18.3133 10.2347 18.3133 11.6485V15.6714C18.3133 17.0852 17.1671 18.2314 15.7533 18.2314H12.7891C11.3752 18.2314 10.229 19.3775 10.229 20.7914V23.8999C10.229 25.3138 9.08289 26.4599 7.66904 26.4599H3.80659C2.39274 26.4599 1.24659 25.3138 1.24659 23.8999V19.8771C1.24659 18.4632 2.39274 17.3171 3.80659 17.3171H6.7708C8.18465 17.3171 9.3308 16.1709 9.3308 14.7571V12.5628C9.3308 11.149 8.18465 10.0028 6.7708 10.0028H3.80658C2.39273 10.0028 1.24658 8.85668 1.24658 7.44283V3.41998Z" fill="black"/>
<path d="M46.7715 22.66L45.0563 18.1032H37.3763L35.6867 22.66H32.4355L39.5011 4.50958H43.0595L50.1251 22.66H46.7715ZM41.2163 7.83758L38.4515 15.2616H43.9811L41.2163 7.83758Z" fill="black"/>
<path d="M50.4312 19.2808L53.0168 18.564C53.1192 19.6904 53.964 20.6888 55.5512 20.6888C56.78 20.6888 57.42 20.0232 57.42 19.2552C57.42 18.5896 56.9592 18.0776 55.9608 17.8728L54.1176 17.4632C51.916 16.9768 50.764 15.5432 50.764 13.828C50.764 11.652 52.7608 9.80878 55.3464 9.80878C58.828 9.80878 59.9544 12.0616 60.1592 13.2904L57.6504 14.0072C57.548 13.2904 57.0104 12.1384 55.3464 12.1384C54.2968 12.1384 53.5544 12.804 53.5544 13.572C53.5544 14.2376 54.0408 14.724 54.8088 14.8776L56.7032 15.2616C59.0584 15.7736 60.2872 17.2072 60.2872 19.0504C60.2872 20.9448 58.7512 23.044 55.5768 23.044C51.9672 23.044 50.5848 20.6888 50.4312 19.2808Z" fill="black"/>
<path d="M65.4079 27.524H62.4639V10.1928H65.3311V11.8824C65.9455 10.8072 67.3791 9.91119 69.2991 9.91119C72.9855 9.91119 75.0591 12.7272 75.0591 16.4136C75.0591 20.1512 72.7807 22.9672 69.1967 22.9672C67.4047 22.9672 66.0479 22.1992 65.4079 21.252V27.524ZM72.0895 16.4136C72.0895 14.084 70.7327 12.548 68.7359 12.548C66.7903 12.548 65.3823 14.084 65.3823 16.4136C65.3823 18.7944 66.7903 20.3304 68.7359 20.3304C70.7071 20.3304 72.0895 18.7944 72.0895 16.4136Z" fill="black"/>
<path d="M79.2193 15.0568H85.3377C85.2865 13.5976 84.3136 12.292 82.2656 12.292C80.3968 12.292 79.3217 13.7256 79.2193 15.0568ZM85.6704 18.308L88.1793 19.1016C87.5137 21.2776 85.5424 23.044 82.5472 23.044C79.168 23.044 76.1729 20.5864 76.1729 16.3624C76.1729 12.42 79.0913 9.80878 82.2401 9.80878C86.0801 9.80878 88.3328 12.3432 88.3328 16.2856C88.3328 16.772 88.2817 17.1816 88.2561 17.2328H79.1424C79.2192 19.1272 80.704 20.484 82.5472 20.484C84.3392 20.484 85.2608 19.5368 85.6704 18.308Z" fill="black"/>
<path d="M95.8302 12.548C94.0126 12.548 92.3998 13.9048 92.3998 16.4136C92.3998 18.9224 94.0126 20.3304 95.8814 20.3304C97.827 20.3304 98.723 18.9736 99.0046 18.0264L101.616 18.9736C101.027 20.9192 99.1582 23.044 95.8814 23.044C92.2206 23.044 89.4302 20.2024 89.4302 16.4136C89.4302 12.5736 92.2206 9.80878 95.8046 9.80878C99.1582 9.80878 101.001 11.908 101.513 13.9048L98.851 14.8776C98.5694 13.7768 97.7246 12.548 95.8302 12.548Z" fill="black"/>
<path d="M107.248 6.37836V10.1928H109.834V12.8296H107.248V18.6152C107.248 19.716 107.734 20.1768 108.835 20.1768C109.245 20.1768 109.731 20.1 109.859 20.0744V22.532C109.68 22.6088 109.117 22.8136 108.042 22.8136C105.738 22.8136 104.304 21.4312 104.304 19.1016V12.8296H102V10.1928H102.64C103.971 10.1928 104.56 9.34796 104.56 8.24716V6.37836H107.248Z" fill="black"/>
</svg>
