<svg width="24" height="25" viewBox="0 0 24 25" fill="none" xmlns="http://www.w3.org/2000/svg">
<path d="M7 8.46973C7 9.02201 6.55228 9.46973 6 9.46973C5.44772 9.46973 5 9.02201 5 8.46973C5 7.91745 5.44772 7.46973 6 7.46973C6.55228 7.46973 7 7.91745 7 8.46973Z" fill="#9585FF"/>
<path d="M10 8.46973C10 9.02201 9.55228 9.46973 9 9.46973C8.44772 9.46973 8 9.02201 8 8.46973C8 7.91745 8.44772 7.46973 9 7.46973C9.55228 7.46973 10 7.91745 10 8.46973Z" fill="#9585FF"/>
<path d="M12 9.46973C12.5523 9.46973 13 9.02201 13 8.46973C13 7.91745 12.5523 7.46973 12 7.46973C11.4477 7.46973 11 7.91745 11 8.46973C11 9.02201 11.4477 9.46973 12 9.46973Z" fill="#9585FF"/>
<path d="M2 5.46973C2 4.91745 2.44772 4.46973 3 4.46973H21C21.5523 4.46973 22 4.91745 22 5.46973V8.46973C22 9.02201 21.5523 9.46973 21 9.46973C20.4477 9.46973 20 9.02201 20 8.46973V6.46973H4V18.4697H10C10.5523 18.4697 11 18.9174 11 19.4697C11 20.022 10.5523 20.4697 10 20.4697H3C2.44772 20.4697 2 20.022 2 19.4697V5.46973Z" fill="#9585FF"/>
<path d="M18 11.4697C18.5523 11.4697 19 11.9174 19 12.4697C19 13.7365 19.2816 14.4205 19.6654 14.8043C20.0492 15.1881 20.7332 15.4697 22 15.4697C22.5523 15.4697 23 15.9174 23 16.4697C23 17.022 22.5523 17.4697 22 17.4697C20.7332 17.4697 20.0492 17.7513 19.6654 18.1351C19.2816 18.5189 19 19.2029 19 20.4697C19 21.022 18.5523 21.4697 18 21.4697C17.4477 21.4697 17 21.022 17 20.4697C17 19.2029 16.7184 18.5189 16.3346 18.1351C15.9508 17.7513 15.2668 17.4697 14 17.4697C13.4477 17.4697 13 17.022 13 16.4697C13 15.9174 13.4477 15.4697 14 15.4697C15.2668 15.4697 15.9508 15.1881 16.3346 14.8043C16.7184 14.4205 17 13.7365 17 12.4697C17 11.9174 17.4477 11.4697 18 11.4697Z" fill="#9585FF"/>
</svg>
