<svg width="17" height="17" viewBox="0 0 17 17" fill="none" xmlns="http://www.w3.org/2000/svg">
<path d="M8.31006 0.190002C6.72786 0.190002 5.18109 0.659192 3.8655 1.53824C2.54991 2.41729 1.52453 3.66672 0.919028 5.12853C0.313528 6.5903 0.155098 8.1989 0.463778 9.7507C0.772458 11.3026 1.53439 12.728 2.65321 13.8469C3.77203 14.9657 5.19749 15.7276 6.74936 16.0363C8.30116 16.345 9.90976 16.1865 11.3716 15.581C12.8334 14.9755 14.0828 13.9502 14.9619 12.6346C15.8409 11.319 16.3101 9.7722 16.3101 8.19C16.3079 6.06895 15.4643 4.03542 13.9645 2.53562C12.4647 1.03581 10.4311 0.192242 8.31006 0.190002ZM11.8224 6.7792L7.51466 11.0869C7.45756 11.1441 7.38966 11.1895 7.31496 11.2205C7.24026 11.2515 7.16016 11.2674 7.07926 11.2674C6.99846 11.2674 6.91836 11.2515 6.84366 11.2205C6.76896 11.1895 6.70106 11.1441 6.64386 11.0869L4.79775 9.2408C4.68228 9.1253 4.61741 8.9687 4.61741 8.8054C4.61741 8.6421 4.68228 8.4855 4.79775 8.37C4.91323 8.2545 5.06984 8.1897 5.23314 8.1897C5.39644 8.1897 5.55305 8.2545 5.66852 8.37L7.07926 9.7815L10.9516 5.90846C11.0088 5.85128 11.0767 5.80593 11.1514 5.77499C11.2261 5.74404 11.3062 5.72812 11.387 5.72812C11.4679 5.72812 11.5479 5.74404 11.6227 5.77499C11.6974 5.80593 11.7652 5.85128 11.8224 5.90846C11.8796 5.96564 11.9249 6.03351 11.9559 6.10822C11.9868 6.18292 12.0028 6.263 12.0028 6.3438C12.0028 6.4247 11.9868 6.5048 11.9559 6.5795C11.9249 6.6542 11.8796 6.7221 11.8224 6.7792Z" fill="#0D0C10"/>
</svg>
